<svg xmlns="http://www.w3.org/2000/svg" xmlns:xlink="http://www.w3.org/1999/xlink">
    <defs>
        <!-- Source: https://commons.wikimedia.org/wiki/File:Nextcloud_Logo.svg -->
        <!-- This logo was modified by removing text. -->
        <symbol xmlns="http://www.w3.org/2000/svg" viewBox="0 0 98 78" id="netmetr">
            <path d="M 46.186748,0.23062499 A 61.603431,61.603431 0 0 0 0.42637498,20.700235 l 3.56889772,3.59881 a 56.526898,56.526898 0 0 1 2.8087429,-3.01492 56.526898,56.526898 0 0 1 4.2451154,-3.7289 56.526898,56.526898 0 0 1 4.596078,-3.28666 56.526898,56.526898 0 0 1 4.900873,-2.81189 56.526898,56.526898 0 0 1 5.157931,-2.30775 56.526898,56.526898 0 0 1 5.362003,-1.78209 56.526898,56.526898 0 0 1 5.513089,-1.23701 56.526898,56.526898 0 0 1 5.609092,-0.68094 56.526898,56.526898 0 0 1 3.998551,-0.14113 56.526898,56.526898 0 0 1 5.643193,0.28225 56.526898,56.526898 0 0 1 5.587059,0.84408 56.526898,56.526898 0 0 1 5.474792,1.39756 56.526898,56.526898 0 0 1 5.307969,1.93789 56.526898,56.526898 0 0 1 5.087634,2.45779 56.526898,56.526898 0 0 1 4.816936,2.953 56.526898,56.526898 0 0 1 4.497974,3.41992 56.526898,56.526898 0 0 1 2.979766,2.77569 l 4.028977,-3.19171 A 61.603431,61.603431 0 0 0 46.186748,0.23062499 Z M 97.992161,13.804815 48.915752,52.474075 c 0,0 5.339465,1.15616 8.213764,4.03003 2.873867,2.87387 3.519583,8.31554 3.519583,8.31554 z m -52.94748,1.09485 A 47.59066,47.59066 0 0 0 10.00464,30.358775 l 3.540045,3.56994 a 42.569998,42.569998 0 0 1 1.840844,-1.97567 42.569998,42.569998 0 0 1 3.196952,-2.80822 42.569998,42.569998 0 0 1 3.461353,-2.47561 42.569998,42.569998 0 0 1 3.69113,-2.11731 42.569998,42.569998 0 0 1 3.883664,-1.73803 42.569998,42.569998 0 0 1 4.038418,-1.34194 42.569998,42.569998 0 0 1 4.152262,-0.93171 42.569998,42.569998 0 0 1 4.224131,-0.51253 42.569998,42.569998 0 0 1 3.011242,-0.1065 42.569998,42.569998 0 0 1 4.249312,0.21195 42.569998,42.569998 0 0 1 4.207869,0.63634 42.569998,42.569998 0 0 1 4.122883,1.05288 42.569998,42.569998 0 0 1 3.996973,1.45841 42.569998,42.569998 0 0 1 3.831728,1.85134 42.569998,42.569998 0 0 1 3.627654,2.2238 42.569998,42.569998 0 0 1 3.387384,2.57582 42.569998,42.569998 0 0 1 1.062853,0.98994 l 3.993828,-3.16391 a 47.59066,47.59066 0 0 0 -32.480484,-12.8581 z m -0.602773,15.2928 a 38.888031,38.888031 0 0 0 -25.302295,9.37787 l 3.568373,3.5988 a 33.853045,33.853045 0 0 1 0.690907,-0.60645 33.853045,33.853045 0 0 1 2.752085,-1.96832 33.853045,33.853045 0 0 1 2.935174,-1.68398 33.853045,33.853045 0 0 1 3.088883,-1.38234 33.853045,33.853045 0 0 1 3.211115,-1.06653 33.853045,33.853045 0 0 1 3.301872,-0.74127 33.853045,33.853045 0 0 1 3.35958,-0.40814 33.853045,33.853045 0 0 1 2.394306,-0.0845 33.853045,33.853045 0 0 1 3.379515,0.16946 33.853045,33.853045 0 0 1 3.345939,0.50519 33.853045,33.853045 0 0 1 3.27879,0.83727 33.853045,33.853045 0 0 1 3.178593,1.16044 33.853045,33.853045 0 0 1 3.046913,1.47204 33.853045,33.853045 0 0 1 1.235973,0.757 l 4.184786,-3.31499 a 38.888031,38.888031 0 0 0 -21.650509,-6.62158 z m 0.637395,26.88031 a 9.5063786,9.5063786 0 0 0 -9.506392,9.5064 9.5063786,9.5063786 0 0 0 9.506392,9.50639 9.5063786,9.5063786 0 0 0 9.506394,-9.50639 9.5063786,9.5063786 0 0 0 -9.506394,-9.5064 z"/>
        </symbol>
    </defs>
</svg>
